# xmcd
#
# Track frame offsets:
#	150
#	14475
#	29627
#	44632
#	64484
#	79266
#	94038
#	111039
#	127519
#	146483
#	159064
#
# Disc length: 2393 seconds
#
# Revision: 1
# Processed by: cddbd v1.5.2PL0 Copyright (c) Steve Scherf et al.
# Submitted via: audiograbber 1.83.01
#
DISCID=8c09570b
DTITLE=Ben Prestage - Down Home and Homemade
DYEAR=2006
DGENRE=Blues
TTITLE0=Illinois Blues
TTITLE1=Weedhead
TTITLE2=My Babe
TTITLE3=Shake Your Hips
TTITLE4=Lost Highway
TTITLE5=Ramble #1
TTITLE6=2:19
TTITLE7=Hurricane Blues
TTITLE8=Travellng Riverside Blues
TTITLE9=Devil in a Bottle
TTITLE10=Colors
EXTD=
EXTT0=
EXTT1=
EXTT2=
EXTT3=
EXTT4=
EXTT5=
EXTT6=
EXTT7=
EXTT8=
EXTT9=
EXTT10=
PLAYORDER=
